<svg version="1.1" xmlns="http://www.w3.org/2000/svg" xmlns:xlink="http://www.w3.org/1999/xlink" x="0px" y="0px"
	 width="58px" height="100px" viewBox="20.5 0 58 100" enable-background="new 20.5 0 58 100" xml:space="preserve">
<path d="M50.106,23.663c6.538,0,11.83-5.299,11.83-11.831C61.936,5.296,56.644,0,50.106,0c-6.535,0-11.825,5.296-11.825,11.832
	C38.281,18.364,43.571,23.663,50.106,23.663z"/>
<path d="M26.613,26.46v46.749h9.719v26.677H48.81V73.208h3.156v26.677h11.918V73.208h9.72V26.46H26.613z M67.508,67.353H32.71
	V32.555h34.798C67.508,32.555,67.508,67.353,67.508,67.353z"/>
<path d="M61,41.039v10.058c0,0.418,0.053,5.294-3.416,6.737c0.001,0.359-0.256,0.685-0.621,0.774l-5.361,1.313
	c-0.427,0.105-0.863-0.156-0.967-0.583l-0.413-1.678c-0.105-0.428,0.154-0.859,0.583-0.963l5.353-1.314
	c0.411-0.101,0.81,0.137,0.935,0.537C59.112,54.741,59,51.187,59,51.148v-0.035v-11.97c-2-1.987-5.521-3.18-8.905-3.18
	c-7.787,0-14.093,6.313-14.093,14.1s6.317,14.1,14.104,14.1s14.13-6.312,14.13-14.1C64.235,46.63,63,43.485,61,41.039z
	 M44.852,50.062c0-2.903,2.354-5.257,5.257-5.257s5.256,2.354,5.256,5.257s-2.353,5.257-5.256,5.257S44.852,52.965,44.852,50.062z"
	/>
<circle cx="50.109" cy="50.062" r="0.359"/>
<rect x="34.9" y="62.14" width="3.657" height="3.316"/>
</svg>
