<svg version="1.1" id="Layer_1" xmlns="http://www.w3.org/2000/svg" xmlns:xlink="http://www.w3.org/1999/xlink" x="0px" y="0px"
	 width="58px" height="100px" viewBox="0 0 58 100" enable-background="new 0 0 58 100" xml:space="preserve">
<path fill="#FFCD05" d="M29.106,23.663c6.538,0,11.83-5.299,11.83-11.831C40.936,5.296,35.644,0,29.106,0
	c-6.535,0-11.825,5.296-11.825,11.832C17.281,18.364,22.571,23.663,29.106,23.663z"/>
<path fill="#EC008C" d="M5.613,26.46v46.749h9.719v26.677H27.81V73.208h3.156v26.677h11.918V73.208h9.72V26.46H5.613z
	 M46.508,67.353H11.71V32.555h34.798C46.508,32.555,46.508,67.353,46.508,67.353z"/>
<path fill="#FFFFFF" d="M40,41.039v10.058c0,0.418,0.053,5.294-3.416,6.737c0.001,0.359-0.256,0.685-0.621,0.774l-5.361,1.313
	c-0.427,0.105-0.863-0.156-0.967-0.583l-0.413-1.678c-0.105-0.428,0.154-0.859,0.583-0.963l5.353-1.314
	c0.411-0.101,0.81,0.137,0.935,0.537C38.112,54.741,38,51.187,38,51.148v-0.035v-11.97c-2-1.987-5.521-3.18-8.905-3.18
	c-7.787,0-14.093,6.313-14.093,14.1s6.317,14.1,14.104,14.1s14.13-6.312,14.13-14.1C43.235,46.63,42,43.485,40,41.039z
	 M23.852,50.062c0-2.903,2.354-5.257,5.257-5.257s5.256,2.354,5.256,5.257s-2.353,5.257-5.256,5.257S23.852,52.965,23.852,50.062z"
	/>
<circle cx="29.109" cy="50.062" r="0.359"/>
<rect x="13.9" y="62.14" fill="#FF9E16" width="3.657" height="3.316"/>
</svg>
