<svg class="latest-mixes" version="1.1" id="Layer_1" xmlns="http://www.w3.org/2000/svg" xmlns:xlink="http://www.w3.org/1999/xlink" x="0px" y="0px"
	 width="100px" height="100px" viewBox="0 0 100 100" enable-background="new 0 0 100 100" xml:space="preserve">
<path fill="#FED806" d="M43.75,49.87c3.518,0,6.38,2.862,6.38,6.38s-2.862,6.38-6.38,6.38s-6.38-2.862-6.38-6.38
	S40.232,49.87,43.75,49.87 M43.75,45.312c-6.041,0-10.938,4.897-10.938,10.938s4.897,10.938,10.938,10.938
	s10.938-4.897,10.938-10.938S49.791,45.312,43.75,45.312L43.75,45.312z"/>
<g>
	<path fill="#EC008C" d="M100,25c0-13.802-11.198-25-25-25c-9.635,0-18,5.458-22.156,13.448c-2.938-0.625-5.979-0.948-9.094-0.948
		C19.583,12.5,0,32.083,0,56.25c0,9.781,3.208,18.812,8.635,26.094c4.094,5.51,9.469,10.031,15.667,13.104
		C30.156,98.365,36.76,100,43.75,100c24.167,0,43.75-19.583,43.75-43.75c0-3.115-0.323-6.156-0.958-9.083
		C94.542,43.01,100,34.635,100,25z M25.927,92.167c-5.677-2.823-10.583-6.958-14.354-12l14.625-10.865
		c2.052,2.75,4.729,5,7.823,6.531L25.927,92.167z M43.75,73.562c-2.76,0-5.375-0.646-7.698-1.812c-2.448-1.208-4.573-3-6.188-5.177
		c-2.156-2.875-3.427-6.458-3.427-10.323c0-9.552,7.76-17.312,17.312-17.312c2.76,0,5.375,0.646,7.698,1.812
		c2.448,1.208,4.573,2.99,6.188,5.177c2.156,2.875,3.427,6.458,3.427,10.323C61.062,65.802,53.302,73.562,43.75,73.562z M75,44.792
		c-10.917,0-19.792-8.875-19.792-19.792S64.083,5.208,75,5.208S94.792,14.083,94.792,25S85.917,44.792,75,44.792z"/>
</g>
<path class="plus" d="M87.5,25c0,0.819-0.326,1.556-0.861,2.09c-0.535,0.535-1.271,0.861-2.09,0.861h-6.597v6.597
	c0,1.632-1.319,2.951-2.951,2.951c-0.812,0-1.556-0.333-2.09-0.861c-0.528-0.535-0.861-1.278-0.861-2.09v-6.597h-6.597
	c-1.632,0-2.951-1.319-2.951-2.951c0-0.819,0.326-1.556,0.861-2.09c0.535-0.535,1.271-0.861,2.09-0.861h6.597v-6.597
	c0-1.632,1.319-2.951,2.951-2.951c0.812,0,1.556,0.333,2.09,0.861c0.528,0.535,0.861,1.278,0.861,2.09v6.597h6.597
	C86.181,22.049,87.5,23.368,87.5,25z"/>
<path fill="#FED806" d="M115.868-197.764"/>
</svg>
