<svg version="1.1" id="Layer_1" xmlns="http://www.w3.org/2000/svg" xmlns:xlink="http://www.w3.org/1999/xlink" x="0px" y="0px"
	 width="100px" height="100px" viewBox="0 0 100 100" enable-background="new 0 0 100 100" xml:space="preserve">
<path fill="#EC008C" d="M70.212,4.325h-0.716h-7.223h-2.011V66.88c-3.647-1.48-7.999-1.992-12.521-1.092
	c-10.262,2.058-17.264,10.305-15.636,18.427c1.624,8.126,11.257,13.051,21.524,10.993c8.679-1.736,14.969-7.921,15.726-14.707h0.14
	V29.856c13.503,2.141,15.496,12.803,13.85,17.264c-0.622,1.699,0.479,2.976,2.57,0C100.844,25.839,68.477,18.369,70.212,4.325z"/>
<g>
	<path fill="#FFFFFF" d="M27.863,55.946c-2.357,0.372-4.092,2.269-4.364,4.527c-0.997-2.057-3.216-3.329-5.573-2.957
		c-2.846,0.45-4.765,3.18-4.325,5.964c0.911,5.764,12.154,11.268,12.154,11.268s8.986-8.7,8.075-14.464
		C33.39,57.5,30.709,55.496,27.863,55.946z"/>
</g>
<g>
	<path fill="#FED806" d="M21.22,21.622c4.213-1.865,9.014-0.606,11.819,2.77c-0.538-4.38,1.728-8.768,5.941-10.633
		c5.086-2.252,11.059,0.166,13.262,5.142c4.561,10.302-7.907,31.006-7.907,31.006s-23.686-4.697-28.247-15
		C13.885,29.931,16.134,23.873,21.22,21.622z"/>
</g>
</svg>
