<svg version="1.1" xmlns="http://www.w3.org/2000/svg" xmlns:xlink="http://www.w3.org/1999/xlink" x="0px" y="0px"
	 width="100px" height="100px" viewBox="0 0 100 100" enable-background="new 0 0 100 100" xml:space="preserve">
<path d="M50,33.718c-8.978,0-16.282,7.305-16.282,16.282S41.022,66.282,50,66.282S66.282,58.978,66.282,50S58.978,33.718,50,33.718z
	 M50,64.943c-8.253,0-14.943-6.69-14.943-14.943S41.747,35.057,50,35.057S64.943,41.747,64.943,50S58.253,64.943,50,64.943z
	 M50,33.718c-8.978,0-16.282,7.305-16.282,16.282S41.022,66.282,50,66.282S66.282,58.978,66.282,50S58.978,33.718,50,33.718z
	 M50,64.943c-8.253,0-14.943-6.69-14.943-14.943S41.747,35.057,50,35.057S64.943,41.747,64.943,50S58.253,64.943,50,64.943z
	 M50,33.718c-8.978,0-16.282,7.305-16.282,16.282S41.022,66.282,50,66.282S66.282,58.978,66.282,50S58.978,33.718,50,33.718z
	 M50,64.943c-8.253,0-14.943-6.69-14.943-14.943S41.747,35.057,50,35.057S64.943,41.747,64.943,50S58.253,64.943,50,64.943z
	 M50,33.718c-8.978,0-16.282,7.305-16.282,16.282S41.022,66.282,50,66.282S66.282,58.978,66.282,50S58.978,33.718,50,33.718z
	 M50,64.943c-8.253,0-14.943-6.69-14.943-14.943S41.747,35.057,50,35.057S64.943,41.747,64.943,50S58.253,64.943,50,64.943z
	 M50,33.718c-8.978,0-16.282,7.305-16.282,16.282S41.022,66.282,50,66.282S66.282,58.978,66.282,50S58.978,33.718,50,33.718z
	 M50,64.943c-8.253,0-14.943-6.69-14.943-14.943S41.747,35.057,50,35.057S64.943,41.747,64.943,50S58.253,64.943,50,64.943z
	 M50,33.718c-8.978,0-16.282,7.305-16.282,16.282S41.022,66.282,50,66.282S66.282,58.978,66.282,50S58.978,33.718,50,33.718z
	 M50,64.943c-8.253,0-14.943-6.69-14.943-14.943S41.747,35.057,50,35.057S64.943,41.747,64.943,50S58.253,64.943,50,64.943z
	 M50,6.972C26.236,6.972,6.972,26.236,6.972,50S26.236,93.027,50,93.027S93.027,73.764,93.027,50S73.764,6.972,50,6.972z
	 M17.214,25.192c3.537-4.669,8.049-8.559,13.233-11.367l10.648,19.701c-2.361,1.276-4.417,3.049-6.026,5.176L17.214,25.192z
	 M32.904,50c0-9.428,7.669-17.097,17.096-17.097c9.428,0,17.097,7.669,17.097,17.097S59.428,67.097,50,67.097
	C40.573,67.097,32.904,59.428,32.904,50z M69.553,86.175L58.904,66.474c2.361-1.276,4.417-3.049,6.026-5.176l17.855,13.51
	C79.249,79.477,74.736,83.366,69.553,86.175z M50,33.718c-8.978,0-16.282,7.305-16.282,16.282S41.022,66.282,50,66.282
	S66.282,58.978,66.282,50S58.978,33.718,50,33.718z M50,64.943c-8.253,0-14.943-6.69-14.943-14.943S41.747,35.057,50,35.057
	S64.943,41.747,64.943,50S58.253,64.943,50,64.943z M50,33.718c-8.978,0-16.282,7.305-16.282,16.282S41.022,66.282,50,66.282
	S66.282,58.978,66.282,50S58.978,33.718,50,33.718z M50,64.943c-8.253,0-14.943-6.69-14.943-14.943S41.747,35.057,50,35.057
	S64.943,41.747,64.943,50S58.253,64.943,50,64.943z M50,33.718c-8.978,0-16.282,7.305-16.282,16.282S41.022,66.282,50,66.282
	S66.282,58.978,66.282,50S58.978,33.718,50,33.718z M50,64.943c-8.253,0-14.943-6.69-14.943-14.943S41.747,35.057,50,35.057
	S64.943,41.747,64.943,50S58.253,64.943,50,64.943z M50,33.718c-8.978,0-16.282,7.305-16.282,16.282S41.022,66.282,50,66.282
	S66.282,58.978,66.282,50S58.978,33.718,50,33.718z M50,64.943c-8.253,0-14.943-6.69-14.943-14.943S41.747,35.057,50,35.057
	S64.943,41.747,64.943,50S58.253,64.943,50,64.943z M50,33.718c-8.978,0-16.282,7.305-16.282,16.282S41.022,66.282,50,66.282
	S66.282,58.978,66.282,50S58.978,33.718,50,33.718z M50,64.943c-8.253,0-14.943-6.69-14.943-14.943S41.747,35.057,50,35.057
	S64.943,41.747,64.943,50S58.253,64.943,50,64.943z"/>
<path d="M83.533,16.467C74.576,7.512,62.668,2.578,50,2.578c-12.667,0-24.576,4.934-33.533,13.889
	C7.512,25.424,2.578,37.332,2.578,50s4.934,24.576,13.889,33.533C25.424,92.488,37.333,97.422,50,97.422
	c12.668,0,24.576-4.934,33.533-13.889C92.488,74.576,97.422,62.668,97.422,50S92.488,25.424,83.533,16.467z M50,94.572
	C25.422,94.572,5.428,74.578,5.428,50S25.422,5.428,50,5.428S94.572,25.422,94.572,50S74.578,94.572,50,94.572z"/>
<polygon points="60.99,50 43.69,58.345 43.69,41.655 "/>
</svg>
