<svg version="1.2" baseProfile="tiny" id="Layer_1" xmlns="http://www.w3.org/2000/svg" xmlns:xlink="http://www.w3.org/1999/xlink"
	 x="0px" y="0px" width="100px" height="100px" viewBox="0 0 100 100" xml:space="preserve">
<path id="shiffle" d="M70.648,67.596c-2.235-0.705-5.089-2.543-8.286-5.743c-2.738-2.68-5.566-6.138-8.467-9.91
	c-0.687,0.926-1.378,1.845-2.072,2.785c-1.892,2.564-3.83,5.15-5.801,7.693c6.883,8.362,14.033,16.558,24.627,17.91V90.1
	l27.329-15.776L70.648,58.551V67.596z M25.098,36.051c2.734,2.68,5.563,6.138,8.46,9.906c0.705-0.948,1.411-1.884,2.123-2.85
	c1.884-2.543,3.801-5.107,5.758-7.631c-7.346-8.908-14.948-17.748-26.75-18.174H2.03V29.96h12.659
	C17.062,29.866,20.773,31.718,25.098,36.051z M70.648,30.293v9.169l27.329-15.78L70.648,7.901v9.574
	c-6.886,0.792-12.388,4.875-17.183,9.563c-7.942,7.899-14.887,18.688-21.741,27.263c-6.753,8.818-13.53,14.091-17.042,13.639H2.023
	v12.659h12.659c7.903-0.105,14.03-4.579,19.314-9.74c7.935-7.899,14.887-18.684,21.733-27.263
	C61.313,36.304,66.887,31.515,70.648,30.293z"/>
</svg>
