<svg version="1.1" id="Layer_1" xmlns="http://www.w3.org/2000/svg" xmlns:xlink="http://www.w3.org/1999/xlink" x="0px" y="0px"
	 width="100px" height="100px" viewBox="0 0 100 100" enable-background="new 0 0 100 100" xml:space="preserve">
<path id="shiffle" fill="#EC008C" d="M70.648,30.293v9.169l27.329-15.78L70.648,7.901v9.574c-6.886,0.792-12.388,4.875-17.183,9.563
	c-7.942,7.899-14.887,18.688-21.741,27.263c-6.753,8.818-13.53,14.091-17.042,13.639H2.023v12.659h12.659
	c7.903-0.105,14.03-4.579,19.314-9.74c7.935-7.899,14.887-18.684,21.733-27.263C61.313,36.304,66.887,31.515,70.648,30.293z"/>
<g>
	<path fill="#231F20" d="M-4999.889,5522.622c-17.014,9.554-1.603,30.387,34.555,50.318c-45.314-14.79-89.27-19.595-106.283-10.042
		c-20.541,11.534,7.385,39.954,59.685,62.438c108.276,46.547,314.757,62.884,314.757,62.884l0.22-8.479
		c-10.605-16.119-71.323-94.423-168.96-136.397C-4918.215,5520.861-4979.349,5511.088-4999.889,5522.622z"/>
	<path fill="#EC008C" d="M-4655.718,5548.347c-14.451-15.025-268.929-164.029-309.498-156.786
		c0.815,15.569-2.639,32.145-11.693,48.675c-29.006-7.211-50.934-11.036-59.748-9.462c-6.781,42.652,2.445,71.914-39.724,136.124
		c41.881,25.315,123.053,71.807,195.456,85.306c96.702,18.031,160.744,23.916,182.715,26.747c4.33-2.599,5.762-25.11,16.104-59.225
		C-4672.672,5588.613-4654.827,5551.979-4655.718,5548.347z"/>
	<path fill="#009490" d="M-4697.085,5679.07c6.556-8.651,4.639-25.23,14.98-59.345c0.3-0.988,0.608-1.982,0.924-2.981
		c-108.208,1.013-266.533-32.894-368.942-100.534c-5.208,14.533-13.3,30.956-26.257,50.686
		C-5036.226,5635.455-4823.993,5665.525-4697.085,5679.07z"/>
	<path fill="#231F20" d="M-4958.398,5382.797c-17.013,9.553-1.603,30.386,34.556,50.317c-45.314-14.79-89.27-19.595-106.283-10.041
		c-20.541,11.534,7.385,39.954,59.685,62.437c108.277,46.548,314.757,62.884,314.757,62.884s-60.463-98.328-168.74-144.875
		C-4876.723,5381.037-4937.857,5371.263-4958.398,5382.797z"/>
	<path fill="#FED806" d="M-4691.001,5655.47c0.758-2.84,8.015-32.836,8.897-35.745c0.811-2.672,1.686-5.387,2.603-8.117
		c-117.094,4.826-263.664-28.723-369.63-98.262c-1.678,4.962-11.859,26.92-14.287,32.377
		C-4998.442,5611.31-4814.728,5647.306-4691.001,5655.47z"/>
	<path fill="#FED806" d="M-5050.132,5516.236"/>
	<path fill="#FF9E16" d="M-4682.498,5621.183c1.1-3.478,11.656-33.158,12.904-36.689c-110.535-1.289-302.684-34.387-372.283-105.971
		c-0.938,3.266-8.323,38.663-9.563,42.126C-4949.031,5588.289-4790.705,5622.196-4682.498,5621.183z"/>
</g>
<path fill="#FED806" d="M-535.132-38.764"/>
<path fill="#FED806" d="M97.978,74.324l-27.33-15.773v9.045c-2.235-0.705-5.089-2.543-8.286-5.743
	c-2.738-2.68-5.566-6.138-8.467-9.91c-0.687,0.926-1.378,1.845-2.072,2.785c-1.193,1.617-2.41,3.24-3.637,4.858l-0.014,0.029
	l-0.01,0.002c-0.71,0.937-1.42,1.875-2.14,2.804c6.883,8.362,14.033,16.558,24.627,17.91V90.1L97.978,74.324z"/>
<path fill="#FFFFFF" d="M25.098,36.051c2.734,2.68,5.563,6.138,8.46,9.906c0.705-0.948,1.411-1.884,2.123-2.85
	c1.884-2.543,3.801-5.107,5.758-7.631c-7.346-8.908-14.948-17.748-26.75-18.174H2.03V29.96h12.659
	C17.062,29.866,20.773,31.718,25.098,36.051z"/>
</svg>
