<svg version="1.1" id="Layer_1" xmlns="http://www.w3.org/2000/svg" xmlns:xlink="http://www.w3.org/1999/xlink" x="0px" y="0px"
	 width="213px" height="72px" viewBox="0 0 213 72" enable-background="new 0 0 213 72" xml:space="preserve">
<g>
	<path fill="#800080" d="M59.052,20.68c-5.964-1.487-11.988,1.267-14.902,6.347c-0.295-5.881-4.279-11.13-10.243-12.618
		c-7.201-1.796-14.5,2.75-16.257,9.795C14.011,38.793,39.652,61.37,39.652,61.37s7.503-2.85,17.26-9.945
		c-0.744-1.734-1.109-3.919-1.109-6.6c0-5.282,1.15-8.955,3.517-11.229"/>
</g>
<g>
	<path fill="#EC008C" d="M60.311,19.466c-5.964-1.487-11.988,1.267-14.902,6.347c-0.295-5.881-4.279-11.13-10.243-12.618
		c-7.201-1.796-14.5,2.75-16.257,9.795C15.27,37.579,39.81,61.34,39.81,61.34s8.604-4.034,18.361-11.129
		c-0.744-1.734-1.109-3.919-1.109-6.6c0-5.282,1.15-8.955,3.517-11.229"/>
</g>
<g>
	<path fill="#009490" d="M62.518,18.254c-5.964-1.487-11.988,1.267-14.902,6.347c-0.295-5.881-4.279-11.13-10.243-12.618
		c-7.201-1.796-14.5,2.75-16.257,9.795c-3.639,14.589,18.866,39.477,18.866,39.477s10.639-5.161,20.396-12.256
		c-0.744-1.734-1.109-3.919-1.109-6.6c0-5.282,1.15-8.955,3.517-11.229"/>
</g>
<g>
	<path fill="#231F20" d="M60.803,42.825c0-5.282,1.15-8.955,3.517-11.229c2.375-2.282,5.366-2.546,7.41-2.546
		c0.804,0,1.554,0.071,2.254,0.207c-0.961-4.964-4.688-9.269-9.932-10.577c-5.964-1.487-11.988,1.267-14.902,6.347
		c-0.295-5.881-4.279-11.13-10.243-12.618c-7.201-1.796-14.5,2.75-16.257,9.795c-3.639,14.589,17.49,38.951,17.49,38.951
		s12.015-4.635,21.772-11.73C61.168,47.691,60.803,45.506,60.803,42.825z"/>
</g>
<g>
	<path fill="#009490" d="M137.185,34.642c1.293,0,2.544,0.369,3.223,0.685l0.269,0.125l0.132-0.266
		c0.418-0.84,0.463-1.623,0.463-1.92c0-1.21-1.799-2.089-4.277-2.089c-1.682,0-4.134,0.195-6.002,1.883
		c-1.964,1.774-2.919,4.773-2.919,9.168c0,8.513,2.727,10.179,7.437,10.179c3.283,0,5.665-0.979,5.665-2.327
		c0-0.549-0.14-1.071-0.399-1.842l-0.114-0.342l-0.318,0.17c-0.79,0.423-2.161,0.876-3.638,0.876c-2.566,0-3.956-1.07-3.956-6.715
		C132.75,34.642,135.745,34.642,137.185,34.642z"/>
	<path fill="#009490" d="M153.508,31.179c-3.693,0-6.562,0.647-7.42,1.107l-0.017,0.01c-0.432,0.269-0.67,0.755-0.67,1.369
		c0,0.426,0.075,1.253,0.579,1.995l0.13,0.192l0.22-0.075c1.47-0.504,4.028-0.856,6.22-0.856c1.992,0,2.664,0.514,2.664,2.036v2.703
		c-1.181-0.359-2.708-0.39-3.19-0.39c-2.864,0-6.671,0.706-6.671,6.808c0,2.528,0.7,4.245,2.14,5.247
		c1.384,0.964,3.253,1.087,4.726,1.087c0.095,0,0.192-0.001,0.284-0.002c3.461,0,5.738-0.864,6.788-1.38l0.155-0.076l0.014-0.173
		c0.255-3.217,0.288-8.294,0.288-12.357v-2.102C159.748,32.669,157.94,31.179,153.508,31.179z M155.214,42.566
		c0,2.041-0.004,4.699-0.128,6.003c-0.416,0.274-1.317,0.535-2.248,0.535c-1.821,0-2.807-0.495-2.807-3.106
		c0-3.415,1.671-3.701,3.238-3.701C153.813,42.296,154.618,42.381,155.214,42.566z"/>
	<path fill="#009490" d="M174.534,40.972c2.386-1.723,3.643-3.816,3.643-6.078c0-1.695-0.759-3.715-4.373-3.715
		c-1.918,0-4.082,0.605-5.68,1.568V22.256h-0.304c-3.249,0-4.229,0-4.229,1.771v27.985h0.304c1.976,0,2.968,0,3.482-0.08
		c0.692-0.108,0.748-0.442,0.747-0.836v-7.402c0.364-0.164,1.229-0.534,1.855-0.649c0.167-0.029,0.334-0.044,0.497-0.044
		c1.636,0,2.876,1.452,3.317,3.889c0.159,0.792,0.233,1.516,0.233,2.28c0,0.71-0.08,1.472-0.166,2.278l-0.059,0.564h0.338
		c2.166,0,3.253,0,3.825-0.082c0.719-0.103,0.818-0.401,0.88-0.816c0.097-0.724,0.146-1.418,0.146-2.063c0-0.478,0-0.93-0.049-1.341
		C178.612,44.569,176.979,42.094,174.534,40.972z M168.124,36.407c1.112-1.098,2.444-1.725,3.669-1.725
		c0.987,0,1.467,0.432,1.467,1.322c0,1.974-1.681,3.536-5.136,4.768V36.407z"/>
	<path fill="#009490" d="M195.651,47.332l-0.29,0.135c-1.673,0.775-3.566,1.201-5.33,1.201c-2.533,0-3.885-0.738-4.131-4.707
		c1.503-0.008,6.155-0.079,9.731-0.637l0.196-0.03l0.051-0.191c0.467-1.742,0.537-4.027,0.537-5.234
		c0-4.438-2.148-6.689-6.384-6.689c-4.086,0-8.777,1.324-8.777,11.646c0,3.71,0.736,6.247,2.25,7.755
		c1.269,1.265,3.031,1.829,5.714,1.829c3.35,0,6.91-0.871,6.91-2.485c0-0.649-0.094-1.64-0.357-2.295L195.651,47.332z
		 M191.84,40.349c-1.733,0.367-4.504,0.397-5.335,0.397c-0.192,0-0.378-0.001-0.555-0.004c0.41-6.139,2.842-6.139,3.651-6.139
		c1.812,0,2.378,0.847,2.424,3.622C192.025,39.089,191.963,39.802,191.84,40.349z"/>
</g>
<g>
	<path fill="#EC008C" d="M118.487,31.027c-1.938,0-4.106,0.457-5.748,1.172c-1.007-0.788-2.402-1.172-4.357-1.172
		c-2.519,0-5.467,0.46-7.786,1.331L100,32.434V52.56h1.158c1.911,0,2.679-0.35,3.214-0.433C105.054,52.02,105,51.37,105,50.921
		v-15.9c1-0.378,1.948-0.57,2.955-0.57c1.752,0,2.045,0.44,2.045,1.679v16.43h0.746c1.966,0,2.968-0.35,3.483-0.434
		c0.7-0.114,0.771-0.804,0.771-1.205V35.115c0-0.414,1.323-0.624,2.431-0.624c1.594,0,1.569,0.492,1.569,2.393V52.56h1.171
		c1.911,0,2.673-0.35,3.207-0.433C124.061,52.02,124,51.37,124,50.921V36.923C124,33.582,123.777,31.027,118.487,31.027z"/>
</g>
<g>
	<path fill="#EC008C" d="M77.545,43.29l0.052-0.193c0.467-1.74,0.536-4.023,0.536-5.229c0-4.438-2.155-6.689-6.404-6.689
		c-4.096,0-8.798,1.324-8.798,11.646c0,3.706,0.735,6.241,2.248,7.748c1.274,1.27,3.043,1.836,5.736,1.836
		c3.36,0,6.931-0.871,6.931-2.485c0-0.647-0.093-1.635-0.356-2.288l-0.126-0.314l-0.322,0.149c-1.669,0.772-3.555,1.198-5.313,1.198
		c-2.52,0-3.865-0.738-4.11-4.707c1.525-0.008,6.153-0.081,9.716-0.638L77.545,43.29z M71.298,34.603
		c1.795,0,2.357,0.847,2.403,3.622c0,0.865-0.062,1.579-0.186,2.127c-1.729,0.364-4.486,0.393-5.314,0.393
		c-0.185,0-0.363-0.001-0.534-0.003C68.077,34.603,70.495,34.603,71.298,34.603z"/>
	<path fill="#EC008C" d="M91.804,24.028v7.72c-0.813-0.382-1.629-0.568-2.872-0.568c-4.892,0-7.596,4.129-7.596,11.329
		c0,9.136,4.252,9.901,8.191,9.901c2.572,0,4.743-0.408,6.805-1.213l0.022-0.078V22.594l0,0
		C96.354,22.594,91.804,22.256,91.804,24.028z M89.506,48.906c-1.721,0-3.164-0.517-3.164-6.755c0-7.548,2.774-7.548,3.736-7.548
		c0.884,0,1.238,0.091,1.726,0.38v13.451C91.154,48.751,90.519,48.906,89.506,48.906z"/>
</g>
</svg>
