<svg version="1.2" baseProfile="tiny" id="Layer_1" xmlns="http://www.w3.org/2000/svg" xmlns:xlink="http://www.w3.org/1999/xlink"
	 x="0px" y="0px" width="213px" height="72px" viewBox="0 0 213 72" xml:space="preserve">
<path fill="#009490" d="M11.718,53.98c-0.906-3.123,0.862-6.383,3.954-7.343c0.015-0.006,0.027-0.013,0.043-0.018
	c8.505-3.226,18.444,6.569,18.444,6.569l-14.881,5.149c-0.029,0.009-0.153,0.046-0.153,0.046
	C15.986,59.254,12.628,57.117,11.718,53.98z"/>
<path fill="#EC008C" d="M11.855,35.029c0.089-2.183,1.912-3.883,4.087-3.835c0.011,0,0.02-0.002,0.031-0.003
	c6.108-0.24,10.35,8.124,10.35,8.124l-10.581,0.104c-0.02-0.001-0.107-0.004-0.107-0.004C13.449,39.3,11.765,37.222,11.855,35.029z"
	/>
<path fill="#FF9E16" d="M15.073,20.935c0.48-1.257,1.878-1.892,3.138-1.438c0.006,0.002,0.012,0.003,0.019,0.005
	c3.613,1.057,4.451,6.772,4.451,6.772l-6.199-2.014c-0.012-0.004-0.062-0.023-0.062-0.023C15.166,23.741,14.59,22.198,15.073,20.935
	z"/>
<circle fill="#FED806" cx="23.19" cy="14.572" r="1.543"/>
<g>
	<path fill="#009490" d="M141.185,33.082c1.293,0,2.544,0.369,3.223,0.685l0.269,0.125l0.132-0.266
		c0.418-0.84,0.463-1.623,0.463-1.92c0-1.21-1.799-2.089-4.277-2.089c-1.682,0-4.134,0.195-6.002,1.883
		c-1.964,1.774-2.919,4.773-2.919,9.168c0,8.513,2.727,10.179,7.437,10.179c3.283,0,5.665-0.979,5.665-2.327
		c0-0.549-0.14-1.071-0.399-1.842l-0.114-0.342l-0.318,0.17c-0.79,0.423-2.161,0.876-3.638,0.876c-2.566,0-3.956-1.07-3.956-6.715
		C136.75,33.082,139.745,33.082,141.185,33.082z"/>
	<path fill="#009490" d="M157.508,29.619c-3.693,0-6.562,0.647-7.42,1.107l-0.017,0.01c-0.432,0.269-0.67,0.755-0.67,1.369
		c0,0.426,0.075,1.253,0.579,1.995l0.13,0.192l0.22-0.075c1.47-0.504,4.028-0.856,6.22-0.856c1.992,0,2.664,0.514,2.664,2.036v2.703
		c-1.181-0.359-2.708-0.39-3.19-0.39c-2.864,0-6.671,0.706-6.671,6.808c0,2.528,0.7,4.245,2.14,5.247
		c1.384,0.964,3.253,1.087,4.726,1.087c0.095,0,0.192-0.001,0.284-0.002c3.461,0,5.738-0.864,6.788-1.38l0.155-0.076l0.014-0.173
		c0.255-3.217,0.288-8.294,0.288-12.357v-2.102C163.748,31.109,161.94,29.619,157.508,29.619z M159.214,41.006
		c0,2.041-0.004,4.699-0.128,6.003c-0.416,0.274-1.317,0.535-2.248,0.535c-1.821,0-2.807-0.495-2.807-3.106
		c0-3.415,1.671-3.701,3.238-3.701C157.813,40.736,158.618,40.821,159.214,41.006z"/>
	<path fill="#009490" d="M178.534,39.412c2.386-1.723,3.643-3.816,3.643-6.078c0-1.695-0.759-3.715-4.373-3.715
		c-1.918,0-4.082,0.605-5.68,1.568V20.696h-0.304c-3.249,0-4.229,0-4.229,1.771v27.985h0.304c1.976,0,2.968,0,3.482-0.08
		c0.692-0.108,0.748-0.442,0.747-0.836v-7.402c0.364-0.164,1.229-0.534,1.855-0.649c0.167-0.029,0.334-0.044,0.497-0.044
		c1.636,0,2.876,1.452,3.317,3.889c0.159,0.792,0.233,1.516,0.233,2.28c0,0.71-0.08,1.472-0.166,2.278l-0.059,0.564h0.338
		c2.166,0,3.253,0,3.825-0.082c0.719-0.103,0.818-0.401,0.88-0.816c0.097-0.724,0.146-1.418,0.146-2.063c0-0.478,0-0.93-0.049-1.341
		C182.612,43.009,180.979,40.534,178.534,39.412z M172.124,34.847c1.112-1.098,2.444-1.725,3.669-1.725
		c0.987,0,1.467,0.432,1.467,1.322c0,1.974-1.681,3.536-5.136,4.768V34.847z"/>
	<path fill="#009490" d="M199.651,45.772l-0.29,0.135c-1.673,0.775-3.566,1.201-5.33,1.201c-2.533,0-3.885-0.738-4.131-4.707
		c1.503-0.008,6.155-0.079,9.731-0.637l0.196-0.03l0.051-0.191c0.467-1.742,0.537-4.027,0.537-5.234
		c0-4.438-2.148-6.689-6.384-6.689c-4.086,0-8.777,1.324-8.777,11.646c0,3.71,0.736,6.247,2.25,7.755
		c1.269,1.265,3.031,1.829,5.714,1.829c3.35,0,6.91-0.871,6.91-2.485c0-0.649-0.094-1.64-0.357-2.295L199.651,45.772z
		 M195.84,38.789c-1.733,0.367-4.504,0.397-5.335,0.397c-0.192,0-0.378-0.001-0.555-0.004c0.41-6.139,2.842-6.139,3.651-6.139
		c1.812,0,2.378,0.847,2.424,3.622C196.025,37.529,195.963,38.242,195.84,38.789z"/>
</g>
<g>
	<path fill="#EC008C" d="M122.487,29.467c-1.938,0-4.106,0.457-5.748,1.172c-1.007-0.788-2.402-1.172-4.357-1.172
		c-2.519,0-5.467,0.46-7.786,1.331L104,30.874V51h1.158c1.911,0,2.679-0.35,3.214-0.433C109.054,50.46,109,49.81,109,49.361V33.461
		c1-0.378,1.948-0.57,2.955-0.57c1.752,0,2.045,0.44,2.045,1.679V51h0.746c1.966,0,2.968-0.35,3.483-0.434
		c0.7-0.114,0.771-0.804,0.771-1.205V33.555c0-0.414,1.323-0.624,2.431-0.624c1.594,0,1.569,0.492,1.569,2.393V51h1.171
		c1.911,0,2.673-0.35,3.207-0.433C128.061,50.46,128,49.81,128,49.361V35.363C128,32.022,127.777,29.467,122.487,29.467z"/>
</g>
<g>
	<path fill="#231F20" d="M64.803,41.265c0-5.282,1.15-8.955,3.517-11.229c2.375-2.282,5.366-2.546,7.41-2.546
		c0.804,0,1.554,0.071,2.254,0.207c-0.961-4.964-4.688-9.269-9.932-10.577c-5.964-1.487-11.988,1.267-14.902,6.347
		c-0.295-5.881-4.279-11.13-10.243-12.618c-7.201-1.796-14.5,2.75-16.257,9.795C23.011,35.233,44.14,59.595,44.14,59.595
		s12.015-4.635,21.772-11.73C65.168,46.131,64.803,43.946,64.803,41.265z"/>
</g>
<g>
	<path fill="#EC008C" d="M81.545,41.73l0.052-0.193c0.467-1.74,0.536-4.023,0.536-5.229c0-4.438-2.155-6.689-6.404-6.689
		c-4.096,0-8.798,1.324-8.798,11.646c0,3.706,0.735,6.241,2.248,7.748c1.274,1.27,3.043,1.836,5.736,1.836
		c3.36,0,6.931-0.871,6.931-2.485c0-0.647-0.093-1.635-0.356-2.288l-0.126-0.314l-0.322,0.149c-1.669,0.772-3.555,1.198-5.313,1.198
		c-2.52,0-3.865-0.738-4.11-4.707c1.525-0.008,6.153-0.081,9.716-0.638L81.545,41.73z M75.298,33.043
		c1.795,0,2.357,0.847,2.403,3.622c0,0.865-0.062,1.579-0.186,2.127c-1.729,0.364-4.486,0.393-5.314,0.393
		c-0.185,0-0.363-0.001-0.534-0.003C72.077,33.043,74.495,33.043,75.298,33.043z"/>
	<path fill="#EC008C" d="M95.804,22.468v7.72c-0.813-0.382-1.629-0.568-2.872-0.568c-4.892,0-7.596,4.129-7.596,11.329
		c0,9.136,4.252,9.901,8.191,9.901c2.572,0,4.743-0.408,6.805-1.213l0.022-0.078V21.034l0,0
		C100.354,21.034,95.804,20.696,95.804,22.468z M93.506,47.346c-1.721,0-3.164-0.517-3.164-6.755c0-7.548,2.774-7.548,3.736-7.548
		c0.884,0,1.238,0.091,1.726,0.38v13.451C95.154,47.191,94.519,47.346,93.506,47.346z"/>
</g>
</svg>
