<svg version="1.2" baseProfile="tiny" id="Layer_1" xmlns="http://www.w3.org/2000/svg" xmlns:xlink="http://www.w3.org/1999/xlink"
	 x="0px" y="0px" width="177.712px" height="57.798px" viewBox="0 0 177.712 57.798" xml:space="preserve">
<polygon fill="#EB008B" points="2.774,9.446 22.171,9.446 28.757,20.496 35.057,9.567 38.373,3.603 41.74,9.482 48.032,20.512 
	54.622,9.446 74.012,9.446 48.03,53.452 38.393,36.911 28.756,53.514 "/>
<polygon fill="#EB008B" points="151.48,53.446 144.69,41.84 137.896,53.446 116.141,53.446 144.692,4.816 173.243,53.446 "/>
<path fill="#231F20" d="M38.379,5.571l2.492,4.375l7.161,12.535l7.164-12.035h17.069L48.03,51.476l-9.637-16.541l-9.637,16.603
	L4.52,10.446h17.076l7.161,12.035l7.164-12.41L38.379,5.571 M38.367,1.509l-1.732,3.082l-2.458,4.375l-5.42,9.294l-5.433-9.071
	l-0.579-0.743h-1.149H4.52H1.027l1.769,2.763l24.235,41.155l1.725,2.875l1.725-2.969l7.913-13.493l7.913,13.47l1.725,2.934
	l1.725-2.94L73.99,11.21l1.769-2.764h-3.493H55.196h-1.149l-0.579,0.742l-5.436,9.197l-5.433-9.384l-2.482-4.389L38.367,1.509
	L38.367,1.509z"/>
<path fill="#FFD704" d="M94.867,54.503c-12.437,0-22.555-10.118-22.555-22.555c0-12.437,10.118-22.556,22.555-22.556
	c12.438,0,22.556,10.119,22.556,22.556C117.423,44.385,107.305,54.503,94.867,54.503z"/>
<path fill="#231F20" d="M94.868,10.393c11.905,0,21.555,9.651,21.555,21.555c0,11.905-9.651,21.555-21.555,21.555
	s-21.555-9.651-21.555-21.555C73.313,20.043,82.963,10.393,94.868,10.393 M94.868,8.393c-12.988,0-23.555,10.567-23.555,23.555
	c0,12.988,10.567,23.555,23.555,23.555c12.988,0,23.555-10.567,23.555-23.555C118.423,18.959,107.856,8.393,94.868,8.393
	L94.868,8.393z"/>
<circle fill="#FBAD18" cx="94.868" cy="31.948" r="11.97"/>
<circle fill="#EB008B" cx="94.868" cy="31.948" r="8.573"/>
<polygon fill="#FBAD18" points="57.821,10.446 48.032,27.231 38.397,10.701 28.757,27.231 18.973,10.446 15.276,10.446 
	28.757,33.487 38.397,17.019 48.032,33.487 61.52,10.446 "/>
<polygon fill="#FBAD18" points="144.69,28.127 129.869,53.446 133.934,53.446 144.69,35.002 155.441,53.446 159.503,53.446 "/>
<circle fill="#231F20" cx="94.868" cy="31.948" r="5.268"/>
<polygon fill="#FFD704" points="54.905,10.446 48.032,22.231 41.163,10.446 38.379,5.571 35.63,10.446 28.757,22.231 21.888,10.446 
	18.973,10.446 28.757,27.231 38.397,10.701 48.032,27.231 57.821,10.446 "/>
<polygon fill="#FFD704" points="144.69,40.787 152.069,53.446 155.441,53.446 144.69,35.002 133.934,53.446 137.304,53.446 "/>
<polygon fill="none" stroke="#000000" stroke-width="2" stroke-miterlimit="10" points="151.48,54.446 144.69,42.84 137.896,54.446 
	116.141,54.446 144.692,5.816 173.243,54.446 "/>
</svg>
